<svg width="114" height="38" viewBox="0 0 114 38" fill="none" xmlns="http://www.w3.org/2000/svg">
<g clip-path="url(#clip0_1480_5473)">
<path d="M14.7778 11.189H16.9359V14.8951C16.9359 15.3174 16.9124 15.6223 16.9124 15.6223H16.9359C16.9359 15.6223 17.6865 14.3791 19.5161 14.3791C21.8618 14.3791 23.3396 16.2322 23.3396 18.9062C23.3396 21.6507 21.6741 23.4334 19.3754 23.4334C17.5692 23.4334 16.7951 22.1433 16.7951 22.1433H16.7717C16.7717 22.1433 16.7951 22.4013 16.7951 22.7297V23.2223H14.7778V11.189ZM19.0001 21.6038C20.1964 21.6038 21.1581 20.642 21.1581 18.9297C21.1581 17.2877 20.2667 16.2322 19.0001 16.2322C17.8741 16.2322 16.842 17.0532 16.842 18.9532C16.8655 20.2902 17.5692 21.6038 19.0001 21.6038Z" fill="#003865"/>
<path d="M25.2865 11.189H27.4445V15.3643C27.4445 15.7865 27.4211 16.0914 27.4211 16.0914H27.4445C27.8667 15.2704 28.9223 14.3791 30.4235 14.3791C32.347 14.3791 33.426 15.3877 33.426 17.663V23.2223H31.2914V18.1087C31.2914 17.0532 31.01 16.3495 29.9309 16.3495C28.805 16.3495 27.9137 17.1001 27.5853 18.1556C27.4914 18.484 27.4445 18.8593 27.4445 19.2816V23.2223H25.2865V11.189Z" fill="#003865"/>
<path d="M39.1025 24.9581C40.4161 24.9581 41.542 24.3952 41.542 22.847V22.331C41.542 22.1199 41.5655 21.8853 41.5655 21.8853H41.542C41.026 22.6359 40.2988 23.0581 39.1494 23.0581C36.6865 23.0581 35.2791 21.0643 35.2791 18.6952C35.2791 16.326 36.6161 14.4026 39.1025 14.4026C40.9791 14.4026 41.6593 15.5051 41.6593 15.5051H41.7062C41.7062 15.5051 41.6828 15.4112 41.6828 15.2705V14.6137H43.7V22.7297C43.7 25.6853 41.4013 26.8112 39.1494 26.8112C38.0704 26.8112 36.921 26.5063 36.0766 26.0606L36.7099 24.4186C36.7099 24.3952 37.8124 24.9581 39.1025 24.9581ZM41.5889 18.6952C41.5889 16.7248 40.6272 16.2088 39.4544 16.2088C38.1408 16.2088 37.4136 17.147 37.4136 18.6248C37.4136 20.126 38.1877 21.252 39.5716 21.252C40.6272 21.252 41.5889 20.6421 41.5889 18.6952Z" fill="#003865"/>
<path d="M47.0309 15.763H45.9753V14.8013H47.0309V14.4025C47.0309 11.5877 49.0013 11.2358 49.9865 11.2358C50.3148 11.2358 50.5025 11.2593 50.5025 11.2593V12.2914C50.5025 12.2914 50.3383 12.2679 50.1037 12.2679C49.4469 12.2679 48.1803 12.5025 48.1803 14.4025V14.8013H50.3618V15.763H48.1803V23.2223H47.0309V15.763Z" fill="#003865"/>
<path d="M52.8013 11.3296H53.9976V12.7605H52.8013V11.3296ZM52.8247 14.7074H53.9741V23.2222H52.8247V14.7074Z" fill="#003865"/>
<path d="M56.9297 14.7074H58.0556V15.9741C58.0556 16.3494 58.0322 16.6544 58.0322 16.6544H58.0556C58.3606 15.8803 59.4396 14.4963 61.4569 14.4963C63.568 14.4963 64.2951 15.6926 64.2951 17.8037V23.2223H63.1458V18.1087C63.1458 16.7716 62.9346 15.5754 61.2927 15.5754C59.8383 15.5754 58.5951 16.584 58.1964 17.9914C58.1025 18.3433 58.0556 18.742 58.0556 19.1408V23.2223H56.9062V14.7074H56.9297Z" fill="#003865"/>
<path d="M71.5432 17.9679H72.0123V17.7568C72.0123 16.1148 71.121 15.5519 69.9012 15.5519C68.4938 15.5519 67.4852 16.3729 67.4852 16.3729L66.9457 15.4815C66.9457 15.4815 68.0716 14.5198 69.9716 14.5198C72.0123 14.5198 73.1617 15.6457 73.1617 17.7803V23.2222H72.0593V22.284C72.0593 21.8618 72.0827 21.5803 72.0827 21.5803H72.0593C72.0593 21.5803 71.3556 23.4334 69.221 23.4334C67.7901 23.4334 66.3358 22.6124 66.3358 20.9C66.3123 18.0148 70.0654 17.9679 71.5432 17.9679ZM69.4086 22.4482C71.0272 22.4482 72.0123 20.7593 72.0123 19.2815V18.9062H71.5198C70.1827 18.9062 67.5086 18.9531 67.5086 20.8297C67.5086 21.6272 68.1185 22.4482 69.4086 22.4482Z" fill="#003865"/>
<path d="M75.6482 14.7074H76.7741V15.9741C76.7741 16.3494 76.7507 16.6544 76.7507 16.6544H76.7741C77.0791 15.8803 78.1581 14.4963 80.1754 14.4963C82.2865 14.4963 83.0136 15.6926 83.0136 17.8037V23.2223H81.8643V18.1087C81.8643 16.7716 81.6532 15.5754 80.0112 15.5754C78.5569 15.5754 77.3136 16.584 76.9149 17.9914C76.8211 18.3433 76.7741 18.742 76.7741 19.1408V23.2223H75.6248V14.7074H75.6482Z" fill="#003865"/>
<path d="M89.1594 14.4963C91.2471 14.4963 92.2792 15.7161 92.2792 15.7161L91.6928 16.584C91.6928 16.584 90.7545 15.5519 89.2063 15.5519C87.3532 15.5519 85.8989 16.9358 85.8989 18.9766C85.8989 20.9704 87.3767 22.4013 89.2533 22.4013C90.9891 22.4013 91.9742 21.205 91.9742 21.205L92.4903 22.0963C92.4903 22.0963 91.3409 23.4334 89.1829 23.4334C86.6496 23.4334 84.7026 21.6272 84.7026 18.9766C84.7026 16.3494 86.6496 14.4963 89.1594 14.4963Z" fill="#003865"/>
<path d="M94.4839 11.3296H95.6802V12.7605H94.4839V11.3296ZM94.5073 14.7074H95.6567V23.2222H94.5073V14.7074Z" fill="#003865"/>
<path d="M102.999 17.9679H103.468V17.7568C103.468 16.1148 102.577 15.5519 101.357 15.5519C99.9495 15.5519 98.9409 16.3729 98.9409 16.3729L98.4014 15.4815C98.4014 15.4815 99.5273 14.5198 101.427 14.5198C103.468 14.5198 104.617 15.6457 104.617 17.7803V23.2222H103.515V22.284C103.515 21.8618 103.538 21.5803 103.538 21.5803H103.515C103.515 21.5803 102.811 23.4334 100.677 23.4334C99.2458 23.4334 97.7915 22.6124 97.7915 20.9C97.7915 18.0148 101.521 17.9679 102.999 17.9679ZM100.864 22.4482C102.483 22.4482 103.468 20.7593 103.468 19.2815V18.9062H102.975C101.638 18.9062 98.9643 18.9531 98.9643 20.8297C98.9643 21.6272 99.5977 22.4482 100.864 22.4482Z" fill="#003865"/>
<path d="M106.893 11.3296H108.042V20.9703C108.042 22.0963 108.558 22.2605 108.98 22.2605C109.121 22.2605 109.262 22.237 109.262 22.237V23.2691C109.262 23.2691 109.051 23.2926 108.84 23.2926C108.136 23.2926 106.869 23.0814 106.869 21.2049V11.3296H106.893Z" fill="#003865"/>
<path d="M110.458 21.6272H111.748V21.8618H111.232V23.2223H110.951V21.8852H110.458V21.6272Z" fill="#003865"/>
<path d="M112.006 21.6272H112.405L112.851 22.8704L113.273 21.6272H113.672V23.2223H113.414V22.0025L112.968 23.2223H112.733L112.288 22.0025V23.2223H112.03V21.6272H112.006Z" fill="#003865"/>
<path d="M32.863 31.0098C32.6519 31.0098 32.4642 31.1974 32.4642 31.4085C32.4642 31.6196 32.6519 31.8073 32.863 31.8073C33.0741 31.8073 33.2618 31.6196 33.2618 31.4085C33.2618 31.174 33.0976 31.0098 32.863 31.0098Z" fill="#A09074"/>
<path d="M27.1864 34.3174C26.6938 34.3174 26.3185 34.7161 26.3185 35.1853C26.3185 35.6544 26.7172 36.0532 27.1864 36.0532C27.6555 36.0532 28.0543 35.6544 28.0543 35.1853C28.0543 34.7161 27.6555 34.3174 27.1864 34.3174Z" fill="#A09074"/>
<path d="M20.4778 37.9999C21.281 37.9999 21.9321 37.3488 21.9321 36.5456C21.9321 35.7424 21.281 35.0913 20.4778 35.0913C19.6746 35.0913 19.0234 35.7424 19.0234 36.5456C19.0234 37.3488 19.6746 37.9999 20.4778 37.9999Z" fill="#A09074"/>
<path d="M13.7692 37.2729C14.9092 37.2729 15.8334 36.3488 15.8334 35.2087C15.8334 34.0687 14.9092 33.1445 13.7692 33.1445C12.6291 33.1445 11.705 34.0687 11.705 35.2087C11.705 36.3488 12.6291 37.2729 13.7692 37.2729Z" fill="#A09074"/>
<path d="M8.0691 28.8752C6.66169 28.8752 5.53577 30.0012 5.53577 31.4086C5.53577 32.816 6.66169 33.9419 8.0691 33.9419C9.47651 33.9419 10.6024 32.816 10.6024 31.4086C10.6259 30.0012 9.47651 28.8752 8.0691 28.8752Z" fill="#A09074"/>
<path d="M7.10745 25.7086C7.10745 24.137 5.84078 22.8704 4.26918 22.8704C2.69757 22.8704 1.43091 24.137 1.43091 25.7086C1.43091 27.2802 2.69757 28.5469 4.26918 28.5469C5.84078 28.5469 7.10745 27.2802 7.10745 25.7086Z" fill="#A09074"/>
<path d="M5.88765 19C5.88765 17.3815 4.57407 16.0444 2.9321 16.0444C1.31358 16.0679 0 17.3815 0 19C0 20.6185 1.31358 21.9555 2.95556 21.9555C4.57407 21.9555 5.88765 20.642 5.88765 19Z" fill="#A09074"/>
<path d="M4.26918 15.1531C5.84078 15.1531 7.10745 13.8864 7.10745 12.3148C7.10745 10.7432 5.84078 9.47656 4.26918 9.47656C2.69757 9.47656 1.43091 10.7198 1.43091 12.2914C1.43091 13.863 2.69757 15.1531 4.26918 15.1531Z" fill="#A09074"/>
<path d="M8.06912 4.05811C6.66171 4.05811 5.51233 5.20749 5.51233 6.6149C5.51233 8.0223 6.66171 9.17169 8.06912 9.17169C9.47653 9.17169 10.6259 8.0223 10.6259 6.6149C10.6259 5.20749 9.47653 4.05811 8.06912 4.05811Z" fill="#A09074"/>
<path d="M13.7692 0.727051C12.6198 0.727051 11.705 1.66532 11.705 2.79125C11.705 3.91717 12.6432 4.85545 13.7692 4.85545C14.8951 4.85545 15.8334 3.91717 15.8334 2.79125C15.8334 1.66532 14.8951 0.727051 13.7692 0.727051Z" fill="#A09074"/>
<path d="M20.4778 2.95556C21.2939 2.95556 21.9556 2.29393 21.9556 1.47778C21.9556 0.661624 21.2939 0 20.4778 0C19.6616 0 19 0.661624 19 1.47778C19 2.29393 19.6616 2.95556 20.4778 2.95556Z" fill="#A09074"/>
<path d="M27.1864 1.92334C26.6938 1.92334 26.295 2.32211 26.295 2.8147C26.295 3.30729 26.6938 3.70606 27.1864 3.70606C27.679 3.70606 28.0778 3.30729 28.0778 2.8147C28.0778 2.32211 27.679 1.92334 27.1864 1.92334Z" fill="#A09074"/>
<path d="M32.863 6.21606C32.6284 6.21606 32.4642 6.40372 32.4642 6.61483C32.4642 6.8494 32.6519 7.0136 32.863 7.0136C33.0976 7.0136 33.2618 6.82594 33.2618 6.61483C33.2618 6.38026 33.0976 6.21606 32.863 6.21606Z" fill="#A09074"/>
</g>
<defs>
<clipPath id="clip0_1480_5473">
<rect width="113.648" height="38" fill="white"/>
</clipPath>
</defs>
</svg>
