<?xml version="1.0" encoding="utf-8"?>
<!-- Generator: Adobe Illustrator 25.0.1, SVG Export Plug-In . SVG Version: 6.00 Build 0)  -->
<svg version="1.1" id="RGB_Design" xmlns="http://www.w3.org/2000/svg" xmlns:xlink="http://www.w3.org/1999/xlink" x="0px" y="0px"
	 viewBox="0 0 758.9 276.7" style="enable-background:new 0 0 758.9 276.7;" xml:space="preserve">
<style type="text/css">
	.st0{fill:#00CCD1;}
	.st1{fill:#004965;}
</style>
<g>
	<path class="st0" d="M206,100.7h-99.8V77.8H206c15.1,0,27.4-12.3,27.4-27.4S221.1,23,206,23H89.3C52.7,23,23,52.8,23,89.3v11.5H0
		V89.3C0,40.1,40,0,89.3,0H206c27.8,0,50.4,22.6,50.4,50.4C256.4,78.1,233.8,100.7,206,100.7z"/>
	<path class="st1" d="M128.2,178.5H58.5v-22.9h69.7c15.1,0,27.4-12.3,27.4-27.4c0-15.1-12.3-27.4-27.4-27.4H89.3
		c-36.6,0-66.3,29.8-66.3,66.3v11.5H0v-11.5c0-49.2,40-89.3,89.3-89.3h38.9c27.8,0,50.4,22.6,50.4,50.4
		C178.6,155.9,156,178.5,128.2,178.5z"/>
	<path class="st1" d="M281.7,66.3h9.9v-6.6c0-11.8,3.6-20.8,10.8-27.2c7.2-6.4,16.2-9.6,26.9-9.6c5.9-0.1,11.1,0.4,15.7,1.4
		l-5.3,26.6c-2.1-0.4-4.4-0.7-6.9-0.7c-3.1,0-5.5,1-7.4,2.9c-1.8,1.9-2.8,4.1-2.8,6.5v6.6h9.8v26.6h-9.8v62.3h-31V92.8h-9.9
		L281.7,66.3L281.7,66.3z"/>
	<path class="st1" d="M357.6,49.6c-3-3-4.6-6.7-4.6-11.1c0-4.3,1.5-8,4.6-11.1c3-3,6.7-4.6,11-4.6c4.3,0,8,1.5,11.1,4.6
		c3,3,4.6,6.7,4.6,11.1c0,4.3-1.5,8-4.6,11.1c-3,3-6.7,4.6-11.1,4.6C364.3,54.2,360.6,52.6,357.6,49.6z M384.2,155.2h-31V66.3h31
		V155.2z"/>
	<path class="st1" d="M428.7,78c2.6-4.2,5.9-7.5,9.9-9.9c4-2.4,8.6-3.6,13.7-3.6c9.3,0,16.7,3.3,22.3,9.9c5.6,6.6,8.4,15.7,8.4,27.5
		v53.3h-31v-51.3c0-3-0.8-5.5-2.5-7.5c-1.6-2-4-3-7.1-3c-3.9,0-6.9,1.1-9,3.4c-2,2.3-3,5.4-3,9.4v48.9h-31V66.3h29.2V78H428.7z"/>
	<path class="st1" d="M515.6,148.6c-7.6-5.4-11.5-14.5-11.5-27.3v-26h-10.4V67.9h10.4V55.8l31-11.2v23.3h12.1v27.5h-12.1v23.2
		c0,3.3,1.2,6,3.7,7.8c2.5,1.9,5.3,2.8,8.5,2.8v27.5C533.8,156.7,523.3,154,515.6,148.6z"/>
	<path class="st1" d="M565,151c-5.3-4-8-10.1-8-18.2c0-8.2,3.2-14.7,9.5-19.5c6.3-4.8,14.7-8.3,25-10.4l12.7-2.7v-3.6
		c0-1.8-0.5-3.3-1.6-4.7s-2.9-2.1-5.5-2.1c-5.1,0-10.6,3-16.5,9l-19.8-18c9.9-10.8,22.2-16.2,37.1-16.3c11.4,0,20.5,2.6,27.2,7.8
		c6.7,5.2,10.1,14.1,10.1,26.8v56.2h-28.8v-10c-4.5,7.9-12.1,11.8-22.7,11.8C576.5,157,570.3,155,565,151z M601.4,130.1
		c1.8-1.9,2.7-3.8,2.7-5.7l0.1-5.1l-10.4,2.3c-2,0.4-3.4,1.2-4.4,2.3c-0.9,1.1-1.4,2.4-1.4,4c0,1.4,0.5,2.5,1.5,3.5
		c1,1,2.5,1.5,4.3,1.5C597.1,133,599.6,132,601.4,130.1z"/>
	<path class="st1" d="M679.7,77.1c2.6-4.5,6.1-7.8,10.6-9.9c4.5-2.1,8.9-3.1,13.1-3.1c11.1,0,20.3,4.5,27.4,13.6
		c7.2,9,10.8,19.9,10.8,32.7s-3.6,23.7-10.8,32.8c-7.2,9-16.3,13.6-27.4,13.6c-3.9,0-7.9-0.9-12.2-2.8c-4.2-1.9-7.5-4.9-9.9-9.1
		v43.4h-31V66h29.3v11.1H679.7z M706.3,122.6c2.9-3.4,4.4-7.4,4.4-12.2c0-4.7-1.5-8.7-4.4-12.1s-6.6-5.1-11.1-5.1
		c-4.4,0-8.1,1.7-11,5.1s-4.4,7.4-4.4,12.1c0,4.8,1.5,8.8,4.4,12.2s6.6,5.1,11,5.1C699.7,127.6,703.4,125.9,706.3,122.6z"/>
	<path class="st1" d="M754.3,55.6c-3,3.1-6.7,4.6-11.1,4.6c-4.4,0-8.1-1.5-11.1-4.6c-3.1-3-4.6-6.7-4.6-11.1s1.5-8.1,4.6-11.1
		c3-3.1,6.7-4.6,11.1-4.6c4.4,0,8.1,1.5,11.1,4.6c3.1,3,4.6,6.7,4.6,11.1C759,48.9,757.4,52.6,754.3,55.6z M752.1,35.7
		c-2.4-2.4-5.4-3.7-8.8-3.7c-3.5,0-6.4,1.2-8.8,3.7c-2.4,2.5-3.7,5.4-3.7,8.8c0,3.5,1.2,6.4,3.7,8.8c2.5,2.5,5.4,3.7,8.8,3.7
		c3.5,0,6.4-1.2,8.8-3.7c2.5-2.5,3.7-5.4,3.7-8.8C755.8,41.1,754.5,38.1,752.1,35.7z M747,53.3c-0.7-1.8-1.3-3.1-1.9-4.1
		c-0.5-0.9-1-1.5-1.3-1.8c-0.7-0.6-1.8-1-3.2-1H740v6.9h-3.5V36.1h7.4c1,0,1.8,0.1,2.6,0.3c0.8,0.2,1.4,0.6,1.9,1.1
		c1,1,1.5,2.1,1.5,3.4c0,1.4-0.5,2.5-1.4,3.5c-0.6,0.6-1.3,1-2.1,1.3c0.6,0.4,1.1,1,1.5,1.6c0.3,0.5,0.7,1.3,1.2,2.2
		c0.5,0.9,1,2.2,1.7,3.8H747z M746.1,40.1c-0.1-0.2-0.3-0.4-0.6-0.5s-0.7-0.2-1.2-0.3c-0.5-0.1-1-0.1-1.7-0.1h-2.8v4.2h2.6
		c0.9,0,1.5-0.1,2.1-0.2c0.5-0.1,0.9-0.3,1.1-0.5c0.5-0.4,0.7-1,0.7-1.7C746.3,40.6,746.3,40.3,746.1,40.1z"/>
	<path class="st1" d="M23.3,221.8c-0.2-0.8-0.5-1.6-0.9-2.3l-0.5-0.8l-4.1-7.1l-5.9-10.3L6,211.6l-4.1,7.1l-0.5,0.7
		c-0.4,0.7-0.7,1.5-0.9,2.3c-0.3,1-0.4,2-0.4,3.1c0,6.5,5.3,11.8,11.8,11.8s11.8-5.3,11.8-11.8C23.7,223.8,23.6,222.8,23.3,221.8z"
		/>
	<path class="st1" d="M66.5,221.8c-0.2-0.8-0.5-1.6-0.9-2.3l-0.5-0.8l-4.1-7.1l-5.9-10.3l-5.9,10.3l-4.1,7.1l-0.5,0.8
		c-0.4,0.7-0.7,1.5-0.9,2.3c-0.3,1-0.4,2-0.4,3.1c0,6.5,5.3,11.8,11.8,11.8c6.5,0,11.8-5.3,11.8-11.8
		C67,223.8,66.8,222.8,66.5,221.8z"/>
	<path class="st0" d="M44.9,261.8c-0.2-0.8-0.5-1.6-0.9-2.3l-0.5-0.8l-4.1-7.1l-5.9-10.3l-5.9,10.3l-4.1,7.1l-0.5,0.8
		c-0.4,0.7-0.7,1.5-0.9,2.3c-0.3,1-0.4,2-0.4,3.1c0,6.5,5.3,11.8,11.8,11.8s11.8-5.3,11.8-11.8C45.3,263.9,45.2,262.8,44.9,261.8z"
		/>
</g>
</svg>
