<svg width="248" height="53" viewBox="0 0 248 53" fill="none" xmlns="http://www.w3.org/2000/svg">
<path fill-rule="evenodd" clip-rule="evenodd" d="M45.8427 17.4623C45.7793 16.6837 45.4384 15.9527 44.881 15.3999L30.3121 0.963074C29.685 0.346209 28.8369 0 27.953 0C27.069 0 26.221 0.346209 25.5939 0.963074L25.206 1.34714C24.5831 1.96811 24.2334 2.80786 24.2334 3.68314C24.2334 4.55842 24.5831 5.39817 25.206 6.01913L33.9835 14.7054H3.33672C2.45263 14.7082 1.60555 15.0572 0.980398 15.6762C0.355248 16.2953 0.00280221 17.1341 0 18.0095V18.5356C-4.46423e-06 19.4129 0.351202 20.2544 0.976654 20.8757C1.60211 21.497 2.45079 21.8474 3.33672 21.8502H42.5485C43.433 21.8488 44.2809 21.5003 44.9063 20.8809C45.5318 20.2616 45.8838 19.422 45.8852 18.5462V18.02C45.8877 17.8333 45.8735 17.6466 45.8427 17.4623Z" fill="#111827"/>
<path fill-rule="evenodd" clip-rule="evenodd" d="M42.5643 30.5903H3.33712C2.45293 30.5931 1.60574 30.9423 0.980517 31.5616C0.355291 32.1809 0.00280255 33.0201 0 33.896V34.4224C-4.46477e-06 35.3 0.351245 36.1419 0.976773 36.7635C1.6023 37.3851 2.45109 37.7358 3.33712 37.7385H33.7379L24.97 46.4238C24.3443 47.0437 23.9929 47.8843 23.9929 48.7609C23.9929 49.6375 24.3443 50.4781 24.97 51.098L25.3526 51.477C25.9798 52.0942 26.8279 52.4406 27.7119 52.4406C28.596 52.4406 29.4441 52.0942 30.0713 51.477L44.6526 37.0332C44.7111 36.9753 44.7695 36.9121 44.8227 36.849C45.1579 36.5402 45.4252 36.1663 45.6081 35.7506C45.7909 35.3349 45.8854 34.8863 45.8855 34.4329V33.9065C45.8869 33.0311 45.5383 32.1908 44.9159 31.5694C44.2935 30.9479 43.448 30.5959 42.5643 30.5903Z" fill="#4ED8AE"/>
<path d="M66.6431 9.88008C66.6431 3.26458 70.6388 0 76.5 0C82.3612 0 86.3083 3.30775 86.3083 9.92325H80.9499C80.9499 6.38887 79.1332 5.02908 76.5 5.02908C73.8668 5.02908 72.05 6.43743 72.05 9.88548V13.5116H83.5831V18.4058H72.05V32.7753H66.6431V9.88008Z" fill="#111827"/>
<path d="M87.4009 21.3039C87.4009 14.6858 92.3704 9.83252 99.4158 9.83252C106.461 9.83252 111.436 14.6858 111.436 21.3039C111.436 27.922 106.467 32.7752 99.4158 32.7752C92.365 32.7752 87.4009 27.922 87.4009 21.3039ZM105.966 21.3039C105.966 17.4643 103.347 14.7331 99.4158 14.7331C95.4843 14.7331 92.8221 17.4643 92.8221 21.3039C92.8221 25.1434 95.4897 27.859 99.4158 27.859C103.342 27.859 105.966 25.1434 105.966 21.3039Z" fill="#111827"/>
<path d="M114.714 19.7875C114.714 13.0485 118.71 9.83252 124.573 9.83252C130.436 9.83252 134.379 13.0485 134.379 19.8791V20.0137H129.024V19.7875C129.024 16.1675 127.207 14.8585 124.573 14.8585C121.939 14.8585 120.122 16.1675 120.122 19.7875V32.7753H114.714V19.7875Z" fill="#111827"/>
<path d="M136.564 22.594V9.83252H141.896V22.594C141.896 26.2625 143.778 27.7547 146.375 27.7547C148.971 27.7547 150.853 26.214 150.853 22.594V9.83252H156.185V22.594C156.185 26.214 158.067 27.7547 160.616 27.7547C163.165 27.7547 165.1 26.2625 165.1 22.594V9.83252H170.432V22.594C170.432 29.597 166.401 32.7753 161.16 32.7753C157.801 32.7753 155.071 31.3747 153.503 28.7512C151.904 31.3747 149.158 32.7753 145.847 32.7753C140.621 32.7753 136.564 29.6078 136.564 22.594Z" fill="#111827"/>
<path d="M174.802 21.5245C174.802 14.5965 179.563 9.83252 186.361 9.83252C193.06 9.83252 197.744 14.4652 197.744 21.4825V32.2027H193.029V27.922C191.731 31.1417 188.829 32.7752 185.454 32.7752C180.244 32.7752 174.802 28.983 174.802 21.5245ZM192.612 21.3039C192.612 17.4643 190.081 14.7278 186.32 14.7278C182.558 14.7278 179.996 17.4591 179.996 21.2986C179.996 25.1382 182.552 27.859 186.32 27.859C190.087 27.859 192.612 25.1434 192.612 21.3039Z" fill="#111827"/>
<path d="M203.207 19.7875C203.207 13.0485 206.985 9.83252 212.514 9.83252C218.043 9.83252 221.78 13.0647 221.78 19.8791V20.0137H216.715V19.7875C216.715 16.1675 215 14.8585 212.514 14.8585C210.028 14.8585 208.312 16.1675 208.312 19.7875V32.7753H203.207V19.7875Z" fill="#111827"/>
<path d="M223.965 21.1621C223.965 13.7592 229.677 9.98726 235.119 9.98726C238.358 9.98726 241.014 11.3019 242.601 13.7122V1.09229H248V21.209C248 28.2207 243.103 32.7751 236.074 32.7751C228.953 32.7751 223.965 28.0433 223.965 21.1621ZM242.601 21.3812C242.601 17.5676 239.972 14.8547 236.031 14.8547C232.09 14.8547 229.407 17.5676 229.407 21.3812C229.407 25.1948 232.085 27.892 236.031 27.892C239.978 27.892 242.601 25.1948 242.601 21.3812Z" fill="#111827"/>
<path d="M74.3224 41.5205C74.6037 41.5205 74.8735 41.6361 75.0725 41.842C75.2714 42.048 75.3832 42.3272 75.3832 42.6184C75.3832 42.9096 75.2714 43.1889 75.0725 43.3948C74.8735 43.6007 74.6037 43.7164 74.3224 43.7164H68.972V46.0254H73.1681C73.3159 46.0107 73.4649 46.0288 73.6053 46.0787C73.7457 46.1286 73.8742 46.209 73.9821 46.3146C74.0899 46.4201 74.1747 46.5483 74.2307 46.6906C74.2868 46.8329 74.3127 46.986 74.3068 47.1395C74.3126 47.2914 74.2863 47.4428 74.2297 47.583C74.1731 47.7233 74.0876 47.8491 73.9791 47.9516C73.8707 48.0541 73.7419 48.1309 73.6018 48.1765C73.4617 48.2222 73.3137 48.2356 73.1681 48.2159H68.972V51.1546C68.9826 51.3193 68.9605 51.4846 68.9069 51.6401C68.8533 51.7956 68.7695 51.9381 68.6605 52.0587C68.5515 52.1792 68.4198 52.2754 68.2735 52.3411C68.1272 52.4068 67.9694 52.4407 67.8099 52.4407C67.6504 52.4407 67.4925 52.4068 67.3462 52.3411C67.1999 52.2754 67.0682 52.1792 66.9592 52.0587C66.8503 51.9381 66.7664 51.7956 66.7128 51.6401C66.6592 51.4846 66.6371 51.3193 66.6477 51.1546V42.8122C66.6326 42.6386 66.6544 42.4637 66.7118 42.2999C66.7692 42.136 66.8606 41.9872 66.9796 41.864C67.0987 41.7408 67.2424 41.6461 67.4007 41.5868C67.559 41.5274 67.728 41.5048 67.8956 41.5205H74.3224Z" fill="#111827"/>
<path d="M90.676 42.7929V51.1635C90.686 51.3271 90.6652 51.4912 90.6149 51.6456C90.5647 51.8001 90.486 51.9415 90.3838 52.0613C90.2816 52.181 90.1581 52.2765 90.0208 52.3418C89.8836 52.4071 89.7355 52.4407 89.5859 52.4407C89.4363 52.4407 89.2883 52.4071 89.151 52.3418C89.0138 52.2765 88.8902 52.181 88.788 52.0613C88.6858 51.9415 88.6072 51.8001 88.5569 51.6456C88.5066 51.4912 88.4859 51.3271 88.4958 51.1635V42.7929C88.4859 42.6293 88.5066 42.4652 88.5569 42.3107C88.6072 42.1563 88.6858 42.0148 88.788 41.8951C88.8902 41.7753 89.0138 41.6798 89.151 41.6146C89.2883 41.5493 89.4363 41.5156 89.5859 41.5156C89.7355 41.5156 89.8836 41.5493 90.0208 41.6146C90.1581 41.6798 90.2816 41.7753 90.3838 41.8951C90.486 42.0148 90.5647 42.1563 90.6149 42.3107C90.6652 42.4652 90.686 42.6293 90.676 42.7929Z" fill="#111827"/>
<path d="M114.687 42.7679V50.9832C114.707 51.1673 114.689 51.3537 114.633 51.53C114.577 51.7064 114.484 51.8687 114.362 52.0064C114.24 52.144 114.09 52.2538 113.923 52.3286C113.755 52.4035 113.575 52.4416 113.392 52.4404C113.119 52.4455 112.849 52.3842 112.604 52.2616C112.359 52.139 112.147 51.9587 111.985 51.7358L107.193 45.3622V51.1913C107.193 51.5014 107.071 51.7987 106.855 52.018C106.638 52.2372 106.345 52.3604 106.039 52.3604C105.733 52.3604 105.44 52.2372 105.224 52.018C105.007 51.7987 104.886 51.5014 104.886 51.1913V42.9761C104.87 42.7902 104.893 42.6032 104.953 42.4268C105.013 42.2504 105.108 42.0886 105.233 41.9516C105.358 41.8145 105.509 41.7053 105.678 41.6308C105.847 41.5563 106.029 41.5181 106.213 41.5188C106.472 41.502 106.731 41.552 106.966 41.664C107.201 41.776 107.404 41.9464 107.556 42.1594L112.375 48.565H112.407V42.7679C112.407 42.4579 112.528 42.1605 112.745 41.9413C112.961 41.722 113.254 41.5989 113.56 41.5989C113.866 41.5989 114.16 41.722 114.376 41.9413C114.592 42.1605 114.714 42.4579 114.714 42.7679H114.687Z" fill="#111827"/>
<path d="M137.654 46.5968V51.1746C137.664 51.3368 137.642 51.4995 137.588 51.6526C137.534 51.8057 137.449 51.9459 137.34 52.0646C137.23 52.1833 137.097 52.278 136.949 52.3427C136.802 52.4074 136.643 52.4407 136.482 52.4407C136.321 52.4407 136.162 52.4074 136.015 52.3427C135.867 52.278 135.734 52.1833 135.624 52.0646C135.514 51.9459 135.43 51.8057 135.376 51.6526C135.322 51.4995 135.3 51.3368 135.31 51.1746V49.3679H130.12V51.2117C130.12 51.5195 129.999 51.8146 129.784 52.0322C129.568 52.2498 129.276 52.3721 128.972 52.3721C128.667 52.3721 128.375 52.2498 128.16 52.0322C127.945 51.8146 127.824 51.5195 127.824 51.2117V46.6021C127.824 43.3436 129.601 41.5156 132.731 41.5156C135.861 41.5156 137.654 43.3383 137.654 46.5968ZM135.31 46.5014C135.31 44.6576 134.398 43.6721 132.715 43.6721C131.032 43.6721 130.12 44.6576 130.12 46.5014V47.2485H135.31V46.5014Z" fill="#111827"/>
<path d="M161.683 42.7679V50.9832C161.705 51.1673 161.685 51.3537 161.622 51.53C161.56 51.7064 161.458 51.8687 161.322 52.0064C161.186 52.144 161.02 52.2538 160.834 52.3286C160.648 52.4035 160.448 52.4416 160.245 52.4404C159.942 52.4455 159.642 52.3842 159.37 52.2616C159.098 52.139 158.863 51.9587 158.683 51.7358L153.368 45.3622H153.333V51.1913C153.333 51.5014 153.198 51.7987 152.958 52.018C152.718 52.2372 152.392 52.3604 152.052 52.3604C151.713 52.3604 151.387 52.2372 151.147 52.018C150.907 51.7987 150.772 51.5014 150.772 51.1913V42.9761C150.755 42.7902 150.78 42.6032 150.847 42.4268C150.913 42.2504 151.019 42.0886 151.157 41.9516C151.296 41.8145 151.464 41.7053 151.651 41.6308C151.839 41.5563 152.041 41.5181 152.245 41.5188C152.533 41.502 152.82 41.552 153.081 41.664C153.342 41.776 153.567 41.9464 153.736 42.1594L159.087 48.565H159.122V42.7679C159.122 42.4579 159.257 42.1605 159.497 41.9413C159.737 41.722 160.063 41.5989 160.402 41.5989C160.742 41.5989 161.068 41.722 161.308 41.9413C161.548 42.1605 161.683 42.4579 161.683 42.7679Z" fill="#111827"/>
<path d="M184.398 50.4327C183.887 51.0912 183.233 51.6157 182.49 51.9636C181.746 52.3116 180.934 52.4732 180.119 52.4353C176.974 52.4353 174.802 50.2177 174.802 46.9778C174.802 43.7379 176.974 41.5203 180.119 41.5203C180.889 41.4873 181.656 41.6293 182.368 41.9364C183.079 42.2434 183.717 42.708 184.236 43.2975C184.425 43.5307 184.528 43.8264 184.524 44.1311C184.53 44.2814 184.506 44.4313 184.453 44.5713C184.4 44.7114 184.32 44.8386 184.217 44.9449C184.114 45.0513 183.991 45.1345 183.856 45.1893C183.721 45.2441 183.576 45.2694 183.431 45.2635C183.254 45.2705 183.078 45.2343 182.917 45.1578C182.756 45.0813 182.614 44.9666 182.504 44.8231C182.227 44.4479 181.867 44.1465 181.455 43.944C181.043 43.7416 180.59 43.644 180.134 43.6593C178.341 43.6593 177.096 45.0118 177.096 46.9778C177.096 48.9438 178.326 50.2964 180.134 50.2964C180.618 50.3157 181.1 50.2076 181.533 49.9821C181.966 49.7565 182.337 49.4209 182.61 49.0067C182.717 48.8574 182.857 48.7367 183.019 48.6547C183.18 48.5726 183.357 48.5315 183.537 48.5349C183.684 48.5221 183.831 48.5427 183.97 48.5951C184.108 48.6475 184.234 48.7305 184.338 48.8383C184.442 48.9461 184.522 49.0761 184.573 49.2193C184.623 49.3625 184.643 49.5153 184.631 49.6673C184.632 49.9412 184.55 50.2087 184.398 50.4327Z" fill="#111827"/>
<path d="M199.927 42.7929V51.1635C199.937 51.3271 199.916 51.4912 199.866 51.6456C199.816 51.8001 199.737 51.9415 199.635 52.0613C199.533 52.181 199.409 52.2765 199.272 52.3418C199.135 52.4071 198.987 52.4407 198.837 52.4407C198.687 52.4407 198.539 52.4071 198.402 52.3418C198.265 52.2765 198.141 52.181 198.039 52.0613C197.937 51.9415 197.858 51.8001 197.808 51.6456C197.758 51.4912 197.737 51.3271 197.747 51.1635V42.7929C197.737 42.6293 197.758 42.4652 197.808 42.3107C197.858 42.1563 197.937 42.0148 198.039 41.8951C198.141 41.7753 198.265 41.6798 198.402 41.6146C198.539 41.5493 198.687 41.5156 198.837 41.5156C198.987 41.5156 199.135 41.5493 199.272 41.6146C199.409 41.6798 199.533 41.7753 199.635 41.8951C199.737 42.0148 199.816 42.1563 199.866 42.3107C199.916 42.4652 199.937 42.6293 199.927 42.7929Z" fill="#111827"/>
<path d="M223.957 42.7679V50.9832C223.977 51.1673 223.958 51.3537 223.902 51.53C223.846 51.7064 223.754 51.8687 223.632 52.0064C223.51 52.144 223.36 52.2538 223.193 52.3286C223.026 52.4035 222.845 52.4416 222.662 52.4404C222.39 52.4455 222.12 52.3842 221.875 52.2616C221.631 52.139 221.419 51.9587 221.257 51.7358L216.473 45.3622H216.442V51.1913C216.442 51.5014 216.32 51.7987 216.104 52.018C215.888 52.2372 215.595 52.3604 215.289 52.3604C214.984 52.3604 214.69 52.2372 214.474 52.018C214.258 51.7987 214.137 51.5014 214.137 51.1913V42.9761C214.121 42.7902 214.144 42.6032 214.204 42.4268C214.264 42.2504 214.359 42.0886 214.484 41.9516C214.609 41.8145 214.76 41.7053 214.928 41.6308C215.097 41.5563 215.279 41.5181 215.463 41.5188C215.722 41.502 215.98 41.552 216.215 41.664C216.45 41.776 216.653 41.9464 216.805 42.1594L221.62 48.565H221.652V42.7679C221.652 42.6144 221.682 42.4624 221.74 42.3205C221.797 42.1787 221.882 42.0498 221.989 41.9413C222.096 41.8327 222.223 41.7466 222.363 41.6878C222.503 41.6291 222.653 41.5989 222.804 41.5989C222.956 41.5989 223.106 41.6291 223.245 41.6878C223.385 41.7466 223.512 41.8327 223.619 41.9413C223.726 42.0498 223.811 42.1787 223.869 42.3205C223.927 42.4624 223.957 42.6144 223.957 42.7679Z" fill="#111827"/>
<path d="M246.711 46.3213C246.884 46.3094 247.058 46.3343 247.221 46.3943C247.383 46.4544 247.531 46.5481 247.653 46.6691C247.775 46.7902 247.868 46.9356 247.928 47.0955C247.987 47.2554 248.01 47.426 247.996 47.5955V47.7843C247.996 50.5372 245.855 52.4407 242.696 52.4407C239.372 52.4407 237.075 50.2226 237.075 46.982C237.075 43.7413 239.372 41.5232 242.696 41.5232C243.493 41.4815 244.29 41.612 245.031 41.9056C245.771 42.1992 246.436 42.6487 246.979 43.2222C247.158 43.4464 247.255 43.7238 247.252 44.0088C247.259 44.1602 247.235 44.3115 247.179 44.4531C247.124 44.5947 247.04 44.7235 246.931 44.8315C246.822 44.9394 246.692 45.0241 246.548 45.0801C246.404 45.1362 246.25 45.1624 246.095 45.1572C245.914 45.1562 245.735 45.1163 245.572 45.0402C245.408 44.9641 245.263 44.8536 245.148 44.7167C244.849 44.3765 244.476 44.1059 244.056 43.9245C243.637 43.7431 243.181 43.6555 242.723 43.6679C240.828 43.6679 239.511 45.0208 239.511 46.9872C239.511 48.9536 240.812 50.3065 242.723 50.3065C244.232 50.3065 245.276 49.5829 245.598 48.4345H243.911C243.763 48.4525 243.613 48.4383 243.471 48.3929C243.329 48.3476 243.199 48.2722 243.09 48.1721C242.981 48.072 242.896 47.9496 242.841 47.8137C242.786 47.6778 242.762 47.5317 242.771 47.3858C242.765 47.2405 242.791 47.0956 242.847 46.961C242.903 46.8264 242.988 46.7052 243.096 46.6057C243.204 46.5062 243.333 46.4307 243.474 46.3843C243.614 46.3379 243.764 46.3218 243.911 46.337L246.711 46.3213Z" fill="#111827"/>
</svg>
