<?xml version="1.0" encoding="UTF-8"?>
<svg xmlns="http://www.w3.org/2000/svg" width="858" height="242" viewBox="0 0 858 242" fill="none">
  <g clip-path="url(#clip0_334_33)">
    <path d="M139.379 20.5914C152.762 32.015 135.356 55.2927 119.261 43.9346C115.742 41.4513 107.19 31.0216 85.0564 31.0216C15.6529 31.0216 12.1322 134.991 85.0564 137.805C113.225 138.892 127.308 120.421 126.805 109.494H97.131C77.013 109.494 74.4982 79.1981 99.6458 79.1981H145.414C152.564 79.1981 159.627 87.2087 160 93.6007C160 198.397 3.93837 188.9 0.0585395 87.6412C-2.51055 20.5914 80.0309 -30.0682 139.379 20.5914Z" fill="url(#paint0_linear_334_33)"></path>
  </g>
  <path d="M209 16V152.004" stroke="url(#paint1_linear_334_33)" stroke-width="29" stroke-linecap="round" stroke-linejoin="round"></path>
  <g clip-path="url(#clip1_334_33)">
    <path d="M391.379 20.5914C404.762 32.015 387.356 55.2927 371.261 43.9346C367.742 41.4513 359.19 31.0216 337.056 31.0216C267.653 31.0216 264.132 134.991 337.056 137.805C365.225 138.892 379.308 120.421 378.805 109.494H349.131C329.013 109.494 326.498 79.1981 351.646 79.1981H397.414C404.564 79.1981 411.627 87.2087 412 93.6007C412 198.397 255.938 188.9 252.059 87.6412C249.489 20.5914 332.031 -30.0682 391.379 20.5914Z" fill="url(#paint2_linear_334_33)"></path>
  </g>
  <path d="M627 16V152H703" stroke="url(#paint3_linear_334_33)" stroke-width="29" stroke-linecap="round"></path>
  <path d="M837 152H762V84M837 16H762V84M762 84H824" stroke="url(#paint4_linear_334_33)" stroke-width="29" stroke-linecap="round" stroke-linejoin="round"></path>
  <g clip-path="url(#clip2_334_33)">
    <path d="M534.537 7.82313C534.803 7.64657 535.098 7.47 535.363 7.26401C537.073 6.02807 544.15 2.20253 557.626 9.91246C572.487 18.4169 586.287 24.6849 581.893 40.1048C578.414 52.2877 563.67 52.6702 557.744 48.6975C556.269 47.7264 545.978 39.5162 533.034 30.5704C521.504 22.5073 530.173 10.6481 534.537 7.82313Z" fill="#1D748F"></path>
    <path d="M495.342 6.82337C495.077 6.64681 494.782 6.47025 494.516 6.26426C492.806 5.02831 485.729 1.20278 472.254 8.91271C457.363 17.3877 443.563 23.6557 447.957 39.0756C451.436 51.2585 466.18 51.641 472.106 47.6684C473.581 46.6973 483.872 38.4871 496.816 29.5412C508.346 21.5076 499.706 9.64839 495.342 6.82337Z" fill="#1D748F"></path>
    <path d="M524.936 78.8588L570.661 78.0028C573.992 77.9457 577.324 78.7732 580.124 80.5423C584.458 83.253 588.88 88.7885 587.849 100.059C586.227 117.893 574.11 158.24 527.383 166.629C510.578 169.653 493.243 167.599 477.471 161.207C463.556 155.558 446.663 145.828 439.529 130.191C437.17 125.027 437.524 119.006 440.708 114.269C442.948 110.959 446.634 108.163 452.648 108.477C465.443 109.105 465.472 115.296 470.867 119.919C473.668 122.316 498.697 149.765 536.227 132.217C536.227 132.217 551.056 126.853 553.975 109.304L526.587 108.62C520.69 108.477 515.03 106.023 511.168 101.686C507.895 98.005 505.891 92.983 509.812 86.9624C513.084 81.969 518.833 78.9729 524.936 78.8588Z" fill="url(#paint5_linear_334_33)"></path>
  </g>
  <path d="M239 238V220.5M239 220.5V203H259M239 220.5H256.5" stroke="#505050" stroke-width="8" stroke-linecap="round" stroke-linejoin="round"></path>
  <path d="M297 203V238" stroke="#505050" stroke-width="8" stroke-linecap="round" stroke-linejoin="round"></path>
  <path d="M337 238V203L365 238V203" stroke="#505050" stroke-width="8" stroke-linecap="round" stroke-linejoin="round"></path>
  <path d="M467 238V203L495 238V203" stroke="#505050" stroke-width="8" stroke-linecap="round" stroke-linejoin="round"></path>
  <path d="M401 238L405.268 228.362M432 238L427.732 228.362M427.732 228.362L416.5 203L405.268 228.362M427.732 228.362H405.268" stroke="#505050" stroke-width="8" stroke-linecap="round" stroke-linejoin="round"></path>
  <path d="M559.5 204.678C525 192.725 525 249 559.5 236.052" stroke="#505050" stroke-width="8" stroke-linecap="round" stroke-linejoin="round"></path>
  <path d="M617 203H597V220.254M618 238L597 237.507V220.254M597 220.254H614.5" stroke="#505050" stroke-width="8" stroke-linecap="round" stroke-linejoin="round"></path>
  <defs>
    <linearGradient id="paint0_linear_334_33" x1="80" y1="0" x2="80" y2="168" gradientUnits="userSpaceOnUse">
      <stop offset="0.0109503" stop-color="#1D748F"></stop>
      <stop offset="1" stop-color="#38BCE3"></stop>
    </linearGradient>
    <linearGradient id="paint1_linear_334_33" x1="209.5" y1="16" x2="209.5" y2="152.004" gradientUnits="userSpaceOnUse">
      <stop offset="0.0109503" stop-color="#1D748F"></stop>
      <stop offset="1" stop-color="#38BCE3"></stop>
    </linearGradient>
    <linearGradient id="paint2_linear_334_33" x1="332" y1="0" x2="332" y2="168" gradientUnits="userSpaceOnUse">
      <stop offset="0.0109503" stop-color="#1D748F"></stop>
      <stop offset="1" stop-color="#38BCE3"></stop>
    </linearGradient>
    <linearGradient id="paint3_linear_334_33" x1="665" y1="16" x2="665" y2="152" gradientUnits="userSpaceOnUse">
      <stop offset="0.0109503" stop-color="#1D748F"></stop>
      <stop offset="1" stop-color="#38BCE3"></stop>
    </linearGradient>
    <linearGradient id="paint4_linear_334_33" x1="799.5" y1="16" x2="799.5" y2="152" gradientUnits="userSpaceOnUse">
      <stop offset="0.0109503" stop-color="#1D748F"></stop>
      <stop offset="1" stop-color="#38BCE3"></stop>
    </linearGradient>
    <linearGradient id="paint5_linear_334_33" x1="578.179" y1="82.5396" x2="475.455" y2="170.855" gradientUnits="userSpaceOnUse">
      <stop stop-color="#DE0A87"></stop>
      <stop offset="1" stop-color="#FC87CB"></stop>
    </linearGradient>
    <clipPath id="clip0_334_33">
      <rect width="160" height="168" fill="white"></rect>
    </clipPath>
    <clipPath id="clip1_334_33">
      <rect width="160" height="168" fill="white" transform="translate(252)"></rect>
    </clipPath>
    <clipPath id="clip2_334_33">
      <rect width="150" height="168" fill="white" transform="translate(438)"></rect>
    </clipPath>
  </defs>
</svg>
